<svg width="180" height="180" viewBox="0 0 180 180" fill="none" xmlns="http://www.w3.org/2000/svg">
  <rect width="180" height="180" rx="36" fill="#1a1a1a"/>
  <rect x="6" y="6" width="168" height="168" rx="30" fill="#252525" stroke="#7cb342" stroke-width="2"/>
  <g transform="translate(90,88) scale(1)">
    <path d="M-8,-48 L-8,-40 L-4,-40 L-4,-36 L-12,-36 L-12,-32 L-16,-24 L-16,-16 L-12,-16 L-12,8 L-20,8 L-20,16 L-24,16 L-24,24 L-28,24 L-28,36 L28,36 L28,24 L24,24 L24,16 L20,16 L20,8 L12,8 L12,-16 L16,-16 L16,-24 L12,-32 L12,-36 L4,-36 L4,-40 L8,-40 L8,-48 Z" fill="#1a1a1a" stroke="#7cb342" stroke-width="3" stroke-linejoin="round"/>
    <rect x="-20" y="28" width="40" height="4" rx="1" fill="#7cb342" opacity="0.4"/>
    <rect x="-12" y="-16" width="24" height="4" rx="1" fill="#7cb342" opacity="0.3"/>
    <path d="M-4,-40 L-4,-36 L4,-36 L4,-40" fill="#7cb342" opacity="0.2"/>
  </g>
  <text x="90" y="156" text-anchor="middle" font-family="Inter,system-ui,sans-serif" font-size="20" font-weight="800" fill="#7cb342" letter-spacing="1">CC</text>
</svg>
