<svg width="180" height="180" viewBox="0 0 180 180" fill="none" xmlns="http://www.w3.org/2000/svg">
  <rect width="180" height="180" rx="36" fill="#1a1a1a"/>
  <rect x="6" y="6" width="168" height="168" rx="30" fill="#252525" stroke="#7cb342" stroke-width="2"/>
  <g transform="translate(90,85) scale(1.1)">
    <path d="M-6,-36 L-6,-30 L-3,-30 L-3,-27 L-9,-27 L-9,-24 L-12,-18 L-12,-12 L-9,-12 L-9,6 L-15,6 L-15,12 L-18,12 L-18,18 L-21,18 L-21,27 L21,27 L21,18 L18,18 L18,12 L15,12 L15,6 L9,6 L9,-12 L12,-12 L12,-18 L9,-24 L9,-27 L3,-27 L3,-30 L6,-30 L6,-36 Z"
      fill="#1a1a1a" stroke="#7cb342" stroke-width="2.5" stroke-linejoin="round"/>
    <rect x="-15" y="21" width="30" height="3" rx="1" fill="#7cb342" opacity="0.4"/>
    <rect x="-9" y="-12" width="18" height="3" rx="1" fill="#7cb342" opacity="0.3"/>
    <rect x="-3" y="-30" width="6" height="3" rx="0.5" fill="#7cb342" opacity="0.2"/>
    <path d="M-6,-36 L-6,-30 L6,-30 L6,-36" fill="none" stroke="#9ccc65" stroke-width="1" stroke-opacity="0.5"/>
  </g>
  <text x="90" y="156" text-anchor="middle" font-family="Inter,system-ui,sans-serif" font-size="20" font-weight="800" fill="#7cb342" letter-spacing="1">CS</text>
</svg>
