<svg width="120" height="120" viewBox="0 0 120 120" fill="none" xmlns="http://www.w3.org/2000/svg">
  <defs>
    <linearGradient id="bg" x1="0" y1="0" x2="120" y2="120" gradientUnits="userSpaceOnUse">
      <stop offset="0%" stop-color="#2d3a1e"/>
      <stop offset="100%" stop-color="#1a1a1a"/>
    </linearGradient>
    <linearGradient id="rookGrad" x1="40" y1="16" x2="80" y2="100" gradientUnits="userSpaceOnUse">
      <stop offset="0%" stop-color="#3d3d3d"/>
      <stop offset="100%" stop-color="#1a1a1a"/>
    </linearGradient>
    <linearGradient id="glow" x1="60" y1="20" x2="60" y2="100" gradientUnits="userSpaceOnUse">
      <stop offset="0%" stop-color="#7cb342" stop-opacity="0.6"/>
      <stop offset="100%" stop-color="#7cb342" stop-opacity="0.1"/>
    </linearGradient>
  </defs>
  <rect width="120" height="120" rx="24" fill="url(#bg)"/>
  <rect x="3" y="3" width="114" height="114" rx="21" fill="none" stroke="#7cb342" stroke-width="1.5" stroke-opacity="0.3"/>
  <g transform="translate(60,58)">
    <path d="M-6,-36 L-6,-30 L-3,-30 L-3,-27 L-9,-27 L-9,-24 L-12,-18 L-12,-12 L-9,-12 L-9,6 L-15,6 L-15,12 L-18,12 L-18,18 L-21,18 L-21,27 L21,27 L21,18 L18,18 L18,12 L15,12 L15,6 L9,6 L9,-12 L12,-12 L12,-18 L9,-24 L9,-27 L3,-27 L3,-30 L6,-30 L6,-36 Z"
      fill="url(#rookGrad)" stroke="#7cb342" stroke-width="2.5" stroke-linejoin="round"/>
    <rect x="-15" y="21" width="30" height="3" rx="1" fill="#7cb342" opacity="0.35"/>
    <rect x="-9" y="-12" width="18" height="3" rx="1" fill="#7cb342" opacity="0.25"/>
    <rect x="-3" y="-30" width="6" height="3" rx="0.5" fill="#7cb342" opacity="0.2"/>
    <path d="M-6,-36 L-6,-30 L6,-30 L6,-36" fill="none" stroke="#9ccc65" stroke-width="1" stroke-opacity="0.4"/>
  </g>
</svg>
